<svg xmlns="http://www.w3.org/2000/svg" viewBox="0 0 32 32">
  <rect width="32" height="32" rx="8" fill="#5865f2"/>
  <path fill="#fff" d="M22.5 10.2a13 13 0 0 0-3.3-1l-.2.4a12 12 0 0 1 2.9 1 12.7 12.7 0 0 0-11.8 0 12 12 0 0 1 3-1l-.2-.4a13 13 0 0 0-3.3 1A18 18 0 0 0 8 22.4a12.9 12.9 0 0 0 4 2l.5-1.1c-.7-.3-1.3-.6-1.9-1l.5-.4a9.1 9.1 0 0 0 7.8 0l.5.4c-.6.4-1.2.7-1.9 1l.5 1.1a12.9 12.9 0 0 0 4-2 18 18 0 0 0-1.4-12.2ZM13.3 18c-.8 0-1.4-.7-1.4-1.6s.6-1.6 1.4-1.6 1.4.7 1.4 1.6-.6 1.6-1.4 1.6Zm5.4 0c-.8 0-1.4-.7-1.4-1.6s.6-1.6 1.4-1.6 1.4.7 1.4 1.6-.6 1.6-1.4 1.6Z"/>
</svg>
